<svg width="606" height="175" viewBox="0 0 606 175" fill="none" xmlns="http://www.w3.org/2000/svg">
<path d="M0 171.068L53.7903 7.86804H112.937L168.736 171.068H130.793L85.7073 33.1304L97.3135 37.8252H68.5212L80.5738 33.1304L36.6042 171.068H0Z" fill="#462483"/>
<path d="M222.811 174.868C205.401 174.868 191.787 171.291 181.966 164.137C172.145 156.983 166.937 146.923 166.342 133.956H198.036C198.631 137.831 200.938 141.334 204.955 144.464C209.121 147.445 215.297 148.935 223.48 148.935C229.73 148.935 234.863 147.892 238.881 145.805C243.047 143.57 245.13 140.44 245.13 136.416C245.13 132.839 243.568 130.007 240.443 127.92C237.319 125.685 231.739 124.12 223.704 123.225L214.106 122.331C199.375 120.841 188.29 116.742 180.85 110.035C173.559 103.329 169.913 94.7587 169.913 84.3259C169.913 75.6815 172.071 68.453 176.386 62.6405C180.701 56.8279 186.653 52.4312 194.242 49.4504C201.979 46.4696 210.758 44.9792 220.579 44.9792C236.351 44.9792 249.074 48.4816 258.745 55.4865C268.417 62.3424 273.476 72.3281 273.923 85.4437H242.229C241.634 81.4196 239.55 78.0662 235.979 75.3834C232.408 72.5517 227.126 71.1358 220.132 71.1358C214.627 71.1358 210.237 72.1791 206.964 74.2656C203.69 76.3522 202.054 79.184 202.054 82.7609C202.054 86.1889 203.467 88.7971 206.294 90.5856C209.121 92.3741 213.734 93.6409 220.132 94.3861L229.73 95.2804C244.758 96.9198 256.439 101.093 264.772 107.8C273.104 114.507 277.271 123.524 277.271 134.851C277.271 143.048 275.039 150.202 270.575 156.312C266.111 162.274 259.787 166.894 251.603 170.173C243.419 173.303 233.822 174.868 222.811 174.868Z" fill="#462483"/>
<path d="M344.824 172.632C332.474 172.632 322.504 171.142 314.916 168.161C307.327 165.031 301.747 159.889 298.176 152.736C294.754 145.433 293.043 135.596 293.043 123.225V15.4691H326.299V124.567C326.299 130.379 327.787 134.851 330.763 137.98C333.888 140.961 338.277 142.452 343.931 142.452H362.01V172.632H344.824ZM274.517 74.7127V48.5561H362.01V74.7127H274.517Z" fill="#462483"/>
<path d="M374.865 171.068V48.5561H403.211V101.093H402.541C402.541 83.8042 406.187 70.4651 413.478 61.0755C420.918 51.686 431.631 46.9912 445.618 46.9912H450.305V77.8426H441.377C431.557 77.8426 423.968 80.5253 418.611 85.8908C413.255 91.1072 410.576 98.7083 410.576 108.694V171.068H374.865Z" fill="#462483"/>
<path d="M530.654 171.068V134.851H524.628V95.5039C524.628 89.2442 523.14 84.5494 520.164 81.4196C517.188 78.2897 512.426 76.7248 505.879 76.7248C502.606 76.7248 498.291 76.7993 492.934 76.9484C487.577 77.0974 482.072 77.321 476.417 77.619C470.763 77.9171 465.63 78.2152 461.017 78.5133V48.3326C464.439 48.0345 468.457 47.7364 473.069 47.4383C477.682 47.1402 482.444 46.9167 487.354 46.7676C492.264 46.6186 496.877 46.5441 501.192 46.5441C513.691 46.5441 524.181 48.3326 532.663 51.9095C541.293 55.4865 547.84 60.9265 552.304 68.2295C556.768 75.3834 559 84.6239 559 95.951V171.068H530.654ZM491.595 174.197C482.816 174.197 475.078 172.632 468.382 169.503C461.835 166.373 456.702 161.901 452.982 156.089C449.262 150.127 447.402 143.048 447.402 134.851C447.402 125.908 449.708 118.605 454.321 112.942C458.934 107.129 465.406 102.881 473.739 100.199C482.072 97.3669 491.669 95.951 502.531 95.951H528.645V115.848H502.308C496.059 115.848 491.223 117.413 487.8 120.543C484.527 123.524 482.89 127.622 482.89 132.839C482.89 137.757 484.527 141.781 487.8 144.911C491.223 147.892 496.059 149.382 502.308 149.382C506.326 149.382 509.897 148.711 513.022 147.37C516.295 145.88 518.973 143.42 521.057 139.993C523.14 136.565 524.33 131.795 524.628 125.685L533.109 134.627C532.365 143.122 530.282 150.276 526.86 156.089C523.586 161.901 518.974 166.373 513.022 169.503C507.219 172.632 500.076 174.197 491.595 174.197Z" fill="#462483"/>
<path fill-rule="evenodd" clip-rule="evenodd" d="M572.215 2.16372C571.447 7.47708 570.232 12.9958 569.082 16.3951C566.715 23.393 563.139 26.8034 555.654 29.2019C552.81 30.1129 546.804 31.395 542.459 32.018C541.208 32.1974 540.184 32.4085 540.184 32.487C540.184 32.5658 541.851 32.9017 543.889 33.2337C563.373 36.4091 567.768 40.1058 570.99 56.03C571.482 58.461 572.029 61.4739 572.206 62.725C572.384 63.9764 572.603 65 572.694 65C572.786 65 573.008 63.9764 573.188 62.725C574.204 55.6811 575.805 49.3061 577.466 45.688C580.792 38.4452 587.018 35.3527 603.039 32.9867C604.219 32.8125 605.184 32.591 605.184 32.4945C605.184 32.3978 604.16 32.1773 602.909 32.0042C598.718 31.4246 592.601 30.1267 589.714 29.2042C583.696 27.281 579.991 24.4338 577.749 20.0101C576.093 16.7417 574.125 9.10416 573.18 2.275C573.007 1.02388 572.789 0 572.697 0C572.604 0 572.387 0.973702 572.215 2.16372Z" fill="#6C38FF"/>
<path fill-rule="evenodd" clip-rule="evenodd" d="M572.618 0.51995C572.538 0.73445 572.276 2.19695 572.037 3.76995C570.609 13.1289 568.561 19.4141 565.789 22.946C562.239 27.4697 555.853 30.0721 543.954 31.8453C542.381 32.0795 540.919 32.3354 540.704 32.4139C540.49 32.4924 542.283 32.891 544.688 33.3C552.325 34.5979 556.588 35.7609 559.944 37.4615C564.903 39.9749 567.527 43.3456 569.541 49.7899C570.441 52.6715 571.707 58.652 572.199 62.3427C572.374 63.6612 572.591 64.7399 572.681 64.7399C572.771 64.7399 572.995 63.6576 573.178 62.3349C574.524 52.6284 577.056 44.8871 579.986 41.5167C583.606 37.3536 590.348 34.8022 602.519 32.9895C603.699 32.8138 604.664 32.5909 604.664 32.4945C604.664 32.3978 603.641 32.1762 602.389 32.0023C598.759 31.4971 592.795 30.2257 589.974 29.3555C581.88 26.8587 578.227 23.1282 575.716 14.7908C574.819 11.8149 573.764 6.81871 573.113 2.46995C572.921 1.18295 572.698 0.30545 572.618 0.51995Z" fill="#6C38FF"/>
<path fill-rule="evenodd" clip-rule="evenodd" d="M572.31 2.40491C571.965 5.51243 570.331 13.1039 569.425 15.81C568.028 19.9861 566.913 21.9156 564.506 24.3221C562.1 26.7287 560.17 27.8436 555.994 29.2411C553.516 30.0705 546.125 31.691 542.914 32.1094C540.541 32.4185 540.799 32.5506 545.254 33.3062C556.113 35.148 561.241 37.1474 564.843 40.945C566.87 43.0811 568.155 45.3943 569.425 49.1898C570.331 51.8959 571.965 59.4874 572.31 62.5949C572.41 63.4888 572.564 64.2191 572.653 64.2183C572.741 64.2176 573.135 62.2577 573.528 59.8633C576.176 43.708 579.937 38.418 591.014 35.2668C593.994 34.4192 600.047 33.2004 603.003 32.853C603.767 32.7633 604.339 32.605 604.275 32.5015C604.211 32.398 603.483 32.235 602.656 32.1393C599.661 31.7925 591.998 30.1191 589.356 29.2348C585.198 27.8438 583.266 26.7261 580.862 24.3221C578.455 21.9156 577.34 19.9861 575.943 15.81C575.037 13.1039 573.403 5.51243 573.058 2.40491C572.958 1.51129 572.79 0.779907 572.684 0.779907C572.578 0.779907 572.41 1.51129 572.31 2.40491Z" fill="#6C38FF"/>
<path fill-rule="evenodd" clip-rule="evenodd" d="M571.935 5.13587C571.171 9.86735 569.882 15.0572 568.787 17.8101C565.556 25.9367 560.138 29.2392 546.164 31.6007C543.805 31.9996 541.78 32.4067 541.665 32.5055C541.549 32.6043 542.134 32.7637 542.965 32.8599C545.746 33.1821 553.289 34.8026 555.739 35.6042C563.401 38.1111 567.077 41.7956 569.595 49.4901C570.382 51.8979 572.005 59.4579 572.323 62.2051C572.418 63.0275 572.58 63.7001 572.684 63.7001C572.788 63.7001 572.95 63.0275 573.045 62.2051C573.35 59.5487 575.015 51.815 575.795 49.4295C578.266 41.8674 582.042 38.0849 589.579 35.6219C592.085 34.8029 599.987 33.1205 602.62 32.8454C603.464 32.757 604.092 32.6212 604.014 32.5435C603.936 32.4658 601.974 32.0789 599.653 31.6839C581.26 28.5533 577.018 24.4809 573.734 6.80091C573.299 4.46377 572.944 2.27015 572.944 1.92591C572.944 1.58167 572.857 1.30035 572.749 1.30087C572.642 1.30139 572.275 3.02701 571.935 5.13587Z" fill="#6C38FF"/>
<path fill-rule="evenodd" clip-rule="evenodd" d="M572.62 1.82004C572.531 2.03454 572.322 3.08754 572.156 4.16004C571.17 10.5217 569.441 16.9297 567.88 20.0063C566.167 23.3821 563.499 25.9889 559.898 27.8047C558.8 28.3582 557.981 28.8993 558.078 29.0072C558.175 29.1151 558.109 29.1203 557.932 29.0184C557.755 28.9167 556.496 29.1905 555.134 29.6268C553.772 30.0631 552.477 30.42 552.256 30.42C552.034 30.42 551.908 30.5077 551.974 30.615C552.04 30.7224 551.725 30.8145 551.274 30.8202C550.463 30.8301 542.758 32.1623 542.004 32.4228C541.79 32.4972 543.252 32.8406 545.254 33.1867C554.479 34.7805 559.833 36.5883 563.16 39.2327C563.713 39.6727 564.298 39.9568 564.46 39.8645C564.622 39.7722 564.675 39.7845 564.579 39.8918C564.483 39.999 564.988 40.8076 565.702 41.6884C567.302 43.6624 568.755 46.6287 569.799 50.05C570.621 52.7475 572.02 59.3409 572.322 61.945C572.418 62.7674 572.567 63.4398 572.655 63.4398C572.742 63.4395 573.025 62.1234 573.282 60.5148C574.424 53.3845 576.158 47.3164 577.909 44.3191C578.466 43.3662 578.855 42.4786 578.773 42.3468C578.692 42.2149 578.722 42.1359 578.84 42.1713C578.958 42.2064 579.756 41.5288 580.614 40.6653C583.419 37.8425 587.133 36.0652 593.351 34.5686C596.661 33.7722 602.193 32.7652 603.333 32.7522C604.541 32.7382 603.38 32.3347 601.154 31.9949C594.922 31.0427 588.434 29.3174 585.424 27.8115C583.456 26.8268 580.975 24.9567 579.958 23.6912C579.491 23.1107 578.991 22.7087 578.847 22.7979C578.697 22.8907 578.664 22.8309 578.77 22.6585C578.873 22.4924 578.709 22.0088 578.407 21.5837C577.594 20.4431 576.49 17.8831 575.578 15.0241C574.903 12.9096 573.233 4.97098 572.882 2.21004C572.818 1.70226 572.726 1.56628 572.62 1.82004Z" fill="#6C38FF"/>
<path fill-rule="evenodd" clip-rule="evenodd" d="M572.424 2.46992C572.424 2.82742 572.541 3.11992 572.684 3.11992C572.827 3.11992 572.944 2.82742 572.944 2.46992C572.944 2.11242 572.827 1.81992 572.684 1.81992C572.541 1.81992 572.424 2.11242 572.424 2.46992ZM572.995 4.02992C573 4.45892 573.058 4.60296 573.124 4.34998C573.19 4.097 573.186 3.746 573.115 3.56998C573.044 3.39396 572.99 3.60092 572.995 4.02992ZM572.215 4.28992C572.22 4.71892 572.278 4.86296 572.344 4.60998C572.41 4.357 572.406 4.006 572.335 3.82998C572.264 3.65396 572.21 3.86092 572.215 4.28992ZM571.945 5.71992C571.945 6.07742 572.004 6.2238 572.076 6.04492C572.149 5.8663 572.149 5.5738 572.076 5.39492C572.004 5.2163 571.945 5.36242 571.945 5.71992ZM573.245 5.71992C573.245 6.07742 573.304 6.2238 573.376 6.04492C573.449 5.8663 573.449 5.5738 573.376 5.39492C573.304 5.2163 573.245 5.36242 573.245 5.71992ZM573.505 7.01992C573.505 7.37742 573.564 7.5238 573.636 7.34492C573.709 7.1663 573.709 6.8738 573.636 6.69492C573.564 6.5163 573.505 6.66242 573.505 7.01992ZM571.685 7.27992C571.685 7.63742 571.744 7.7838 571.816 7.60492C571.889 7.4263 571.889 7.1338 571.816 6.95492C571.744 6.7763 571.685 6.92242 571.685 7.27992ZM571.425 8.57992C571.425 8.93742 571.484 9.0838 571.556 8.90492C571.629 8.7263 571.629 8.4338 571.556 8.25492C571.484 8.0763 571.425 8.22242 571.425 8.57992ZM573.765 8.57992C573.765 8.93742 573.824 9.0838 573.896 8.90492C573.969 8.7263 573.969 8.4338 573.896 8.25492C573.824 8.0763 573.765 8.22242 573.765 8.57992ZM571.145 9.77149C571.157 10.0744 571.219 10.136 571.302 9.9288C571.377 9.74108 571.368 9.5167 571.281 9.43038C571.195 9.34406 571.134 9.49745 571.145 9.77149ZM574.005 9.77149C574.017 10.0744 574.079 10.136 574.162 9.9288C574.237 9.74108 574.228 9.5167 574.141 9.43038C574.055 9.34406 573.994 9.49745 574.005 9.77149ZM570.885 11.0715C570.897 11.3744 570.959 11.436 571.042 11.2288C571.117 11.0411 571.108 10.8167 571.021 10.7304C570.935 10.6441 570.874 10.7975 570.885 11.0715ZM574.265 11.0715C574.277 11.3744 574.339 11.436 574.422 11.2288C574.497 11.0411 574.488 10.8167 574.401 10.7304C574.315 10.6441 574.254 10.7975 574.265 11.0715ZM570.625 12.1115C570.637 12.4144 570.699 12.476 570.782 12.2688C570.857 12.0811 570.848 11.8567 570.761 11.7704C570.675 11.6841 570.614 11.8375 570.625 12.1115ZM574.525 12.1115C574.537 12.4144 574.599 12.476 574.682 12.2688C574.757 12.0811 574.748 11.8567 574.661 11.7704C574.575 11.6841 574.514 11.8375 574.525 12.1115ZM570.365 13.1515C570.377 13.4544 570.439 13.516 570.522 13.3088C570.597 13.1211 570.588 12.8967 570.501 12.8104C570.415 12.7241 570.354 12.8775 570.365 13.1515ZM574.785 13.1515C574.797 13.4544 574.859 13.516 574.942 13.3088C575.017 13.1211 575.008 12.8967 574.921 12.8104C574.835 12.7241 574.774 12.8775 574.785 13.1515ZM569.973 14.4484C569.877 14.8295 569.849 15.1915 569.91 15.2528C569.972 15.3139 570.1 15.0524 570.196 14.6715C570.291 14.2903 570.319 13.9284 570.258 13.867C570.197 13.8059 570.068 14.0675 569.973 14.4484ZM575.061 14.0399C575.061 14.2544 575.161 14.6639 575.284 14.9499C575.425 15.2778 575.508 15.3256 575.508 15.0799C575.508 14.8654 575.407 14.4559 575.284 14.1699C575.143 13.8421 575.061 13.7942 575.061 14.0399ZM568.946 17.5601C568.696 18.2137 568.769 18.3824 569.076 17.8554C569.228 17.5944 569.297 17.3261 569.23 17.2592C569.163 17.1922 569.035 17.3276 568.946 17.5601ZM576.072 17.2899C576.072 17.4329 576.186 17.7254 576.324 17.9399C576.463 18.1544 576.576 18.2129 576.576 18.0699C576.576 17.9269 576.463 17.6344 576.324 17.4199C576.186 17.2054 576.072 17.1469 576.072 17.2899ZM568.057 19.6356C567.745 20.276 567.546 20.7999 567.612 20.7999C567.788 20.7999 568.839 18.6879 568.721 18.5704C568.667 18.5158 568.368 18.9953 568.057 19.6356ZM576.844 19.0795C576.844 19.3585 577.618 20.7999 577.767 20.7999C577.839 20.7999 577.704 20.4195 577.468 19.9549C576.985 19.0059 576.844 18.8081 576.844 19.0795ZM566.964 21.5799C566.811 21.8659 566.744 22.0999 566.816 22.0999C566.887 22.0999 567.071 21.8659 567.224 21.5799C567.377 21.2939 567.444 21.0599 567.372 21.0599C567.301 21.0599 567.117 21.2939 566.964 21.5799ZM578.144 21.5799C578.297 21.8659 578.481 22.0999 578.552 22.0999C578.624 22.0999 578.557 21.8659 578.404 21.5799C578.251 21.2939 578.067 21.0599 577.996 21.0599C577.924 21.0599 577.991 21.2939 578.144 21.5799ZM566.151 22.8149C565.828 23.2273 565.837 23.2364 566.249 22.9132C566.682 22.5734 566.82 22.3599 566.606 22.3599C566.552 22.3599 566.347 22.5648 566.151 22.8149ZM579.054 22.8799C579.313 23.1659 579.583 23.3999 579.655 23.3999C579.726 23.3999 579.573 23.1659 579.314 22.8799C579.055 22.5939 578.785 22.3599 578.714 22.3599C578.642 22.3599 578.795 22.5939 579.054 22.8799ZM564.61 24.6349L563.714 25.6099L564.689 24.714C565.226 24.221 565.664 23.7824 565.664 23.739C565.664 23.5403 565.444 23.7275 564.61 24.6349ZM580.614 24.6999C581.173 25.2719 581.688 25.7399 581.76 25.7399C581.831 25.7399 581.433 25.2719 580.874 24.6999C580.316 24.1279 579.8 23.6599 579.729 23.6599C579.657 23.6599 580.056 24.1279 580.614 24.6999ZM562.771 26.1949C562.448 26.6073 562.457 26.6164 562.869 26.2932C563.119 26.0969 563.324 25.892 563.324 25.8382C563.324 25.6242 563.111 25.7618 562.771 26.1949ZM582.044 25.8382C582.044 25.892 582.249 26.0969 582.499 26.2932C582.912 26.6164 582.921 26.6073 582.597 26.1949C582.258 25.7618 582.044 25.6242 582.044 25.8382ZM583.474 26.9281C584.107 27.4312 586.484 28.6673 586.598 28.5523C586.643 28.5071 585.841 28.03 584.817 27.4923C583.792 26.9549 583.188 26.7009 583.474 26.9281ZM559.944 27.8199C559.158 28.2354 558.606 28.5809 558.718 28.5877C558.994 28.6043 561.504 27.3233 561.504 27.1655C561.504 26.9918 561.54 26.9767 559.944 27.8199ZM557.604 28.8599C557.39 28.9985 557.331 29.1119 557.474 29.1119C557.617 29.1119 557.91 28.9985 558.124 28.8599C558.339 28.7213 558.397 28.608 558.254 28.608C558.111 28.608 557.819 28.7213 557.604 28.8599ZM587.244 28.8599C587.459 28.9985 587.751 29.1119 587.894 29.1119C588.037 29.1119 587.979 28.9985 587.764 28.8599C587.55 28.7213 587.257 28.608 587.114 28.608C586.971 28.608 587.03 28.7213 587.244 28.8599ZM590.234 29.8999C590.52 30.0229 590.93 30.1233 591.144 30.1233C591.39 30.1233 591.342 30.0408 591.014 29.8999C590.728 29.7769 590.319 29.6766 590.104 29.6766C589.858 29.6766 589.906 29.759 590.234 29.8999ZM554.176 30.0775C554.363 30.1526 554.587 30.1433 554.674 30.057C554.76 29.9706 554.607 29.9093 554.333 29.9205C554.03 29.9329 553.968 29.9946 554.176 30.0775ZM553.136 30.3375C553.323 30.4126 553.547 30.4033 553.634 30.317C553.72 30.2306 553.567 30.1693 553.293 30.1805C552.99 30.1929 552.928 30.2546 553.136 30.3375ZM591.876 30.3375C592.063 30.4126 592.287 30.4033 592.374 30.317C592.46 30.2306 592.307 30.1693 592.033 30.1805C591.73 30.1929 591.668 30.2546 591.876 30.3375ZM552.096 30.5975C552.283 30.6726 552.507 30.6633 552.594 30.577C552.68 30.4906 552.527 30.4293 552.253 30.4405C551.95 30.4529 551.888 30.5146 552.096 30.5975ZM592.916 30.5975C593.103 30.6726 593.327 30.6633 593.414 30.577C593.5 30.4906 593.347 30.4293 593.073 30.4405C592.77 30.4529 592.708 30.5146 592.916 30.5975ZM551.056 30.8575C551.243 30.9326 551.467 30.9233 551.554 30.837C551.64 30.7506 551.487 30.6893 551.213 30.7005C550.91 30.7129 550.848 30.7746 551.056 30.8575ZM593.956 30.8575C594.143 30.9326 594.367 30.9233 594.454 30.837C594.54 30.7506 594.387 30.6893 594.113 30.7005C593.81 30.7129 593.748 30.7746 593.956 30.8575ZM549.739 31.112C549.918 31.1843 550.211 31.1843 550.389 31.112C550.568 31.04 550.422 30.981 550.064 30.981C549.707 30.981 549.561 31.04 549.739 31.112ZM595.256 31.1175C595.443 31.1926 595.667 31.1833 595.754 31.097C595.84 31.0106 595.687 30.9493 595.413 30.9605C595.11 30.9729 595.048 31.0346 595.256 31.1175ZM548.439 31.372C548.618 31.4443 548.911 31.4443 549.089 31.372C549.268 31.3 549.122 31.241 548.764 31.241C548.407 31.241 548.261 31.3 548.439 31.372ZM596.279 31.372C596.458 31.4443 596.751 31.4443 596.929 31.372C597.108 31.3 596.962 31.241 596.604 31.241C596.247 31.241 596.101 31.3 596.279 31.372ZM547.139 31.632C547.318 31.7043 547.611 31.7043 547.789 31.632C547.968 31.56 547.822 31.501 547.464 31.501C547.107 31.501 546.961 31.56 547.139 31.632ZM598.034 31.7199C598.463 31.8291 599.107 31.9183 599.464 31.9183C600.044 31.9183 600.03 31.897 599.334 31.7199C598.905 31.6107 598.262 31.5215 597.904 31.5215C597.324 31.5215 597.338 31.5429 598.034 31.7199ZM545.579 31.892C545.758 31.9643 546.051 31.9643 546.229 31.892C546.408 31.82 546.262 31.761 545.904 31.761C545.547 31.761 545.401 31.82 545.579 31.892ZM544.154 32.1601C544.407 32.2261 544.758 32.2217 544.934 32.1505C545.11 32.0792 544.903 32.0254 544.474 32.0306C544.045 32.0358 543.901 32.0941 544.154 32.1601ZM600.574 32.1601C600.827 32.2261 601.178 32.2217 601.354 32.1505C601.53 32.0792 601.323 32.0254 600.894 32.0306C600.465 32.0358 600.321 32.0941 600.574 32.1601ZM542.134 32.4999C542.043 32.6473 542.262 32.7599 542.639 32.7599C543.005 32.7599 543.304 32.6429 543.304 32.4999C543.304 32.3569 543.077 32.2399 542.8 32.2399C542.522 32.2399 542.223 32.3569 542.134 32.4999ZM602.194 32.4999C602.283 32.6429 602.67 32.7581 603.055 32.756C603.602 32.7529 603.669 32.697 603.364 32.4999C602.85 32.1679 601.989 32.1679 602.194 32.4999ZM543.894 32.9401C544.147 33.0061 544.498 33.0017 544.674 32.9305C544.85 32.8592 544.643 32.8054 544.214 32.8106C543.785 32.8158 543.641 32.8741 543.894 32.9401ZM600.834 32.9401C601.087 33.0061 601.438 33.0017 601.614 32.9305C601.79 32.8592 601.583 32.8054 601.154 32.8106C600.725 32.8158 600.581 32.8741 600.834 32.9401ZM545.454 33.2001C545.707 33.2661 546.058 33.2617 546.234 33.1905C546.41 33.1192 546.203 33.0654 545.774 33.0706C545.345 33.0758 545.201 33.1341 545.454 33.2001ZM599.274 33.2001C599.527 33.2661 599.878 33.2617 600.054 33.1905C600.23 33.1192 600.023 33.0654 599.594 33.0706C599.165 33.0758 599.021 33.1341 599.274 33.2001ZM547.014 33.4601C547.267 33.5261 547.618 33.5217 547.794 33.4505C547.97 33.3792 547.763 33.3254 547.334 33.3306C546.905 33.3358 546.761 33.3941 547.014 33.4601ZM597.714 33.4601C597.967 33.5261 598.318 33.5217 598.494 33.4505C598.67 33.3792 598.463 33.3254 598.034 33.3306C597.605 33.3358 597.461 33.3941 597.714 33.4601ZM549.414 33.9359C550.129 34.1197 550.948 34.2674 551.234 34.264C551.52 34.2609 551.169 34.1078 550.454 33.9239C549.739 33.7401 548.92 33.5924 548.634 33.5958C548.348 33.5989 548.699 33.7521 549.414 33.9359ZM595.564 33.7999C595.049 33.9648 595.022 34.0082 595.434 34.0082C595.72 34.0082 596.247 33.9143 596.604 33.7999C597.119 33.6351 597.146 33.5917 596.734 33.5917C596.448 33.5917 595.922 33.6855 595.564 33.7999ZM593.939 34.232C594.118 34.3043 594.411 34.3043 594.589 34.232C594.768 34.16 594.622 34.101 594.264 34.101C593.907 34.101 593.761 34.16 593.939 34.232ZM552.096 34.4975C552.283 34.5726 552.507 34.5633 552.594 34.477C552.68 34.3906 552.527 34.3293 552.253 34.3405C551.95 34.3529 551.888 34.4146 552.096 34.4975ZM592.916 34.4975C593.103 34.5726 593.327 34.5633 593.414 34.477C593.5 34.3906 593.347 34.3293 593.073 34.3405C592.77 34.3529 592.708 34.4146 592.916 34.4975ZM553.136 34.7575C553.323 34.8326 553.547 34.8233 553.634 34.737C553.72 34.6506 553.567 34.5893 553.293 34.6005C552.99 34.6129 552.928 34.6746 553.136 34.7575ZM591.876 34.7575C592.063 34.8326 592.287 34.8233 592.374 34.737C592.46 34.6506 592.307 34.5893 592.033 34.6005C591.73 34.6129 591.668 34.6746 591.876 34.7575ZM554.744 35.2299C555.245 35.4226 555.83 35.5804 556.044 35.5804C556.259 35.5804 556.025 35.4226 555.524 35.2299C555.024 35.0373 554.439 34.8794 554.224 34.8794C554.01 34.8794 554.244 35.0373 554.744 35.2299ZM590.234 35.0999C589.906 35.2408 589.858 35.3233 590.104 35.3233C590.319 35.3233 590.728 35.2229 591.014 35.0999C591.342 34.959 591.39 34.8766 591.144 34.8766C590.93 34.8766 590.52 34.9769 590.234 35.0999ZM556.824 35.836C557.039 35.9686 557.507 36.1553 557.864 36.2509C558.316 36.3718 558.395 36.3513 558.124 36.1839C557.91 36.0513 557.442 35.8646 557.084 35.7689C556.633 35.648 556.553 35.6685 556.824 35.836ZM588.024 35.8799C587.81 36.0185 587.751 36.1319 587.894 36.1319C588.037 36.1319 588.33 36.0185 588.544 35.8799C588.759 35.7413 588.817 35.628 588.674 35.628C588.531 35.628 588.239 35.7413 588.024 35.8799ZM585.619 36.8086C584.611 37.3554 584.725 37.5442 585.749 37.0237C586.729 36.525 586.903 36.396 586.573 36.4103C586.442 36.416 586.012 36.5952 585.619 36.8086ZM559.186 36.7569C559.453 36.9964 560.984 37.6997 560.984 37.5832C560.984 37.4334 559.543 36.6599 559.264 36.6599C559.161 36.6599 559.126 36.7036 559.186 36.7569ZM561.244 37.7808C561.244 37.8414 561.728 38.2108 562.319 38.6021C562.91 38.9932 563.887 39.7401 564.49 40.2617C565.093 40.7833 564.972 40.6249 564.22 39.9099C562.996 38.7464 561.244 37.4927 561.244 37.7808ZM582.863 38.4815C582.27 38.9115 581.784 39.327 581.784 39.4047C581.784 39.5269 583.249 38.5298 583.981 37.9092C584.597 37.3874 583.836 37.7769 582.863 38.4815ZM580.47 40.4949L579.574 41.4699L580.549 40.574C581.086 40.081 581.524 39.6424 581.524 39.599C581.524 39.4003 581.304 39.5875 580.47 40.4949ZM566.317 42.5099C567.359 43.9571 567.647 44.2254 567.066 43.2075C566.795 42.7333 566.348 42.1483 566.071 41.9075C565.779 41.653 565.881 41.9049 566.317 42.5099ZM578.846 42.4449C578.14 43.3989 577.664 44.2205 578.055 43.8099C578.538 43.3032 579.729 41.5999 579.601 41.5999C579.529 41.5999 579.189 41.98 578.846 42.4449ZM567.925 45.1065C568.163 45.6055 568.404 45.9671 568.46 45.9107C568.579 45.7919 567.79 44.1999 567.612 44.1999C567.546 44.1999 567.687 44.6079 567.925 45.1065ZM577.222 45.0041C576.993 45.4464 576.852 45.8543 576.908 45.9107C576.965 45.9671 577.206 45.6055 577.443 45.1065C577.978 43.9854 577.793 43.8996 577.222 45.0041ZM568.933 47.3199C569.029 47.6774 569.216 48.1454 569.348 48.3599C569.516 48.6308 569.536 48.5515 569.415 48.0999C569.32 47.7424 569.133 47.2744 569 47.0599C568.833 46.789 568.812 46.8683 568.933 47.3199ZM576.093 47.6088C575.933 48.0682 575.847 48.4897 575.903 48.5453C575.959 48.6009 576.135 48.2705 576.295 47.8111C576.455 47.3516 576.541 46.9302 576.485 46.8745C576.43 46.8189 576.253 47.1494 576.093 47.6088ZM569.861 49.9199C569.861 50.1344 569.961 50.5439 570.084 50.8299C570.225 51.1578 570.308 51.2056 570.308 50.9599C570.308 50.7454 570.207 50.3359 570.084 50.0499C569.943 49.7221 569.861 49.6742 569.861 49.9199ZM575.173 50.3284C575.077 50.7095 575.049 51.0715 575.11 51.1328C575.172 51.1939 575.3 50.9324 575.396 50.5515C575.491 50.1703 575.519 49.8084 575.458 49.747C575.397 49.6859 575.268 49.9475 575.173 50.3284ZM570.365 51.8915C570.377 52.1944 570.439 52.256 570.522 52.0488C570.597 51.8611 570.588 51.6367 570.501 51.5504C570.415 51.4641 570.354 51.6175 570.365 51.8915ZM574.785 51.8915C574.797 52.1944 574.859 52.256 574.942 52.0488C575.017 51.8611 575.008 51.6367 574.921 51.5504C574.835 51.4641 574.774 51.6175 574.785 51.8915ZM570.625 52.9315C570.637 53.2344 570.699 53.296 570.782 53.0888C570.857 52.9011 570.848 52.6767 570.761 52.5904C570.675 52.5041 570.614 52.6575 570.625 52.9315ZM574.525 52.9315C574.537 53.2344 574.599 53.296 574.682 53.0888C574.757 52.9011 574.748 52.6767 574.661 52.5904C574.575 52.5041 574.514 52.6575 574.525 52.9315ZM570.885 53.9715C570.897 54.2744 570.959 54.336 571.042 54.1288C571.117 53.9411 571.108 53.7167 571.021 53.6304C570.935 53.5441 570.874 53.6975 570.885 53.9715ZM574.129 54.4845C574.031 55.006 574.003 55.485 574.066 55.5487C574.13 55.6121 574.262 55.2372 574.36 54.7154C574.458 54.1938 574.486 53.7149 574.422 53.6512C574.359 53.5877 574.227 53.9627 574.129 54.4845ZM571.165 55.1199C571.165 55.4774 571.224 55.6238 571.296 55.4449C571.369 55.2663 571.369 54.9738 571.296 54.7949C571.224 54.6163 571.165 54.7624 571.165 55.1199ZM571.425 56.4199C571.425 56.7774 571.484 56.9238 571.556 56.7449C571.629 56.5663 571.629 56.2738 571.556 56.0949C571.484 55.9163 571.425 56.0624 571.425 56.4199ZM573.765 56.4199C573.765 56.7774 573.824 56.9238 573.896 56.7449C573.969 56.5663 573.969 56.2738 573.896 56.0949C573.824 55.9163 573.765 56.0624 573.765 56.4199ZM571.695 57.8499C571.7 58.2789 571.758 58.423 571.824 58.17C571.89 57.917 571.886 57.566 571.815 57.39C571.744 57.214 571.69 57.4209 571.695 57.8499ZM573.505 57.9799C573.505 58.3374 573.564 58.4838 573.636 58.3049C573.709 58.1263 573.709 57.8338 573.636 57.6549C573.564 57.4763 573.505 57.6224 573.505 57.9799ZM571.945 59.2799C571.945 59.6374 572.004 59.7838 572.076 59.6049C572.149 59.4263 572.149 59.1338 572.076 58.9549C572.004 58.7763 571.945 58.9224 571.945 59.2799ZM573.245 59.2799C573.245 59.6374 573.304 59.7838 573.376 59.6049C573.449 59.4263 573.449 59.1338 573.376 58.9549C573.304 58.7763 573.245 58.9224 573.245 59.2799ZM572.215 60.9699C572.22 61.3989 572.278 61.543 572.344 61.29C572.41 61.037 572.406 60.686 572.335 60.51C572.264 60.334 572.21 60.5409 572.215 60.9699ZM572.995 60.9699C573 61.3989 573.058 61.543 573.124 61.29C573.19 61.037 573.186 60.686 573.115 60.51C573.044 60.334 572.99 60.5409 572.995 60.9699ZM572.424 62.5299C572.424 62.8874 572.541 63.1799 572.684 63.1799C572.827 63.1799 572.944 62.8874 572.944 62.5299C572.944 62.1724 572.827 61.8799 572.684 61.8799C572.541 61.8799 572.424 62.1724 572.424 62.5299Z" fill="#6C38FF"/>
<path fill-rule="evenodd" clip-rule="evenodd" d="M572.424 2.47002C572.424 2.68452 572.541 2.86002 572.684 2.86002C572.827 2.86002 572.944 2.68452 572.944 2.47002C572.944 2.25552 572.827 2.08002 572.684 2.08002C572.541 2.08002 572.424 2.25552 572.424 2.47002ZM572.965 4.0516C572.977 4.3545 573.039 4.41612 573.122 4.2089C573.197 4.02118 573.187 3.7968 573.101 3.71048C573.015 3.62416 572.953 3.77756 572.965 4.0516ZM571.665 7.17159C571.677 7.47449 571.739 7.53612 571.822 7.3289C571.897 7.14118 571.887 6.9168 571.801 6.83048C571.715 6.74416 571.653 6.89755 571.665 7.17159ZM573.485 7.17159C573.497 7.47449 573.559 7.53612 573.642 7.3289C573.717 7.14118 573.707 6.9168 573.621 6.83048C573.535 6.74416 573.473 6.89755 573.485 7.17159ZM573.745 8.47159C573.757 8.77449 573.819 8.83612 573.902 8.6289C573.977 8.44118 573.967 8.2168 573.881 8.13048C573.795 8.04416 573.733 8.19755 573.745 8.47159ZM571.145 9.77159C571.157 10.0745 571.219 10.1361 571.302 9.9289C571.377 9.74118 571.367 9.5168 571.281 9.43048C571.195 9.34416 571.133 9.49755 571.145 9.77159ZM570.625 12.1116C570.637 12.4145 570.699 12.4761 570.782 12.2689C570.857 12.0812 570.847 11.8568 570.761 11.7705C570.675 11.6842 570.613 11.8376 570.625 12.1116ZM570.365 13.1516C570.377 13.4545 570.439 13.5161 570.522 13.3089C570.597 13.1212 570.587 12.8968 570.501 12.8105C570.415 12.7242 570.353 12.8776 570.365 13.1516ZM567.891 19.9438C567.75 20.3143 567.779 20.3442 568.036 20.0894C568.214 19.9129 568.294 19.7031 568.214 19.6233C568.134 19.5432 567.989 19.6875 567.891 19.9438ZM564.738 24.505L563.974 25.35L564.819 24.5864C565.284 24.1665 565.664 23.7861 565.664 23.7414C565.664 23.5404 565.45 23.7175 564.738 24.505ZM580.484 24.57C580.969 25.0705 581.425 25.48 581.496 25.48C581.568 25.48 581.229 25.0705 580.744 24.57C580.259 24.0695 579.804 23.66 579.732 23.66C579.661 23.66 579.999 24.0695 580.484 24.57ZM562.771 26.195C562.448 26.6074 562.457 26.6165 562.869 26.2933C563.119 26.097 563.324 25.8921 563.324 25.8383C563.324 25.6243 563.111 25.7619 562.771 26.195ZM582.044 25.8383C582.044 25.8921 582.249 26.097 582.499 26.2933C582.911 26.6165 582.921 26.6074 582.597 26.195C582.258 25.7619 582.044 25.6243 582.044 25.8383ZM585.095 27.8523C585.271 28.0301 585.481 28.1099 585.561 28.0298C585.641 27.9498 585.497 27.8044 585.24 27.7067C584.87 27.5657 584.84 27.5954 585.095 27.8523ZM553.135 30.3376C553.323 30.4127 553.547 30.4034 553.634 30.3171C553.72 30.2307 553.567 30.1694 553.293 30.1806C552.99 30.193 552.928 30.2547 553.135 30.3376ZM552.095 30.5976C552.283 30.6727 552.507 30.6634 552.594 30.5771C552.68 30.4907 552.527 30.4294 552.253 30.4406C551.95 30.453 551.888 30.5147 552.095 30.5976ZM551.055 30.8576C551.243 30.9327 551.467 30.9234 551.554 30.8371C551.64 30.7507 551.487 30.6894 551.213 30.7006C550.91 30.713 550.848 30.7747 551.055 30.8576ZM593.955 30.8576C594.143 30.9327 594.367 30.9234 594.454 30.8371C594.54 30.7507 594.387 30.6894 594.113 30.7006C593.81 30.713 593.748 30.7747 593.955 30.8576ZM549.755 31.1176C549.943 31.1927 550.167 31.1834 550.254 31.0971C550.34 31.0107 550.187 30.9494 549.913 30.9606C549.61 30.973 549.548 31.0347 549.755 31.1176ZM595.255 31.1176C595.443 31.1927 595.667 31.1834 595.754 31.0971C595.84 31.0107 595.687 30.9494 595.413 30.9606C595.11 30.973 595.048 31.0347 595.255 31.1176ZM596.555 31.3776C596.743 31.4527 596.967 31.4434 597.054 31.3571C597.14 31.2707 596.987 31.2094 596.713 31.2206C596.41 31.233 596.348 31.2947 596.555 31.3776ZM597.855 31.6376C598.043 31.7127 598.267 31.7034 598.354 31.6171C598.44 31.5307 598.287 31.4694 598.013 31.4806C597.71 31.493 597.648 31.5547 597.855 31.6376ZM545.595 31.8976C545.783 31.9727 546.007 31.9634 546.094 31.8771C546.18 31.7907 546.027 31.7294 545.753 31.7406C545.45 31.753 545.388 31.8147 545.595 31.8976ZM544.019 32.1521C544.198 32.2244 544.49 32.2244 544.669 32.1521C544.848 32.0801 544.702 32.0211 544.344 32.0211C543.987 32.0211 543.84 32.0801 544.019 32.1521ZM600.975 32.1576C601.163 32.2327 601.387 32.2234 601.474 32.1371C601.56 32.0507 601.407 31.9894 601.133 32.0006C600.83 32.013 600.768 32.0747 600.975 32.1576ZM542.134 32.5C542.046 32.643 542.214 32.76 542.509 32.76C542.803 32.76 543.044 32.643 543.044 32.5C543.044 32.357 542.876 32.24 542.669 32.24C542.463 32.24 542.223 32.357 542.134 32.5ZM602.324 32.5C602.324 32.643 602.587 32.7582 602.909 32.7561C603.382 32.7527 603.419 32.7039 603.104 32.5C602.6 32.1742 602.324 32.1742 602.324 32.5ZM600.975 32.9376C601.163 33.0127 601.387 33.0034 601.474 32.9171C601.56 32.8307 601.407 32.7694 601.133 32.7806C600.83 32.793 600.768 32.8547 600.975 32.9376ZM545.595 33.1976C545.783 33.2727 546.007 33.2634 546.094 33.1771C546.18 33.0907 546.027 33.0294 545.753 33.0406C545.45 33.053 545.388 33.1147 545.595 33.1976ZM599.415 33.1976C599.603 33.2727 599.827 33.2634 599.914 33.1771C600 33.0907 599.847 33.0294 599.573 33.0406C599.27 33.053 599.208 33.1147 599.415 33.1976ZM597.839 33.4521C598.018 33.5244 598.31 33.5244 598.489 33.4521C598.668 33.3801 598.522 33.3211 598.164 33.3211C597.807 33.3211 597.66 33.3801 597.839 33.4521ZM596.555 33.7176C596.743 33.7927 596.967 33.7834 597.054 33.6971C597.14 33.6107 596.987 33.5494 596.713 33.5606C596.41 33.573 596.348 33.6347 596.555 33.7176ZM549.755 33.9776C549.943 34.0527 550.167 34.0434 550.254 33.9571C550.34 33.8707 550.187 33.8094 549.913 33.8206C549.61 33.833 549.548 33.8947 549.755 33.9776ZM595.255 33.9776C595.443 34.0527 595.667 34.0434 595.754 33.9571C595.84 33.8707 595.687 33.8094 595.413 33.8206C595.11 33.833 595.048 33.8947 595.255 33.9776ZM562.804 38.8383C562.804 38.8921 563.009 39.097 563.259 39.2933C563.671 39.6165 563.681 39.6074 563.357 39.195C563.018 38.7619 562.804 38.6243 562.804 38.8383ZM564.624 40.43C564.96 40.7875 565.293 41.08 565.365 41.08C565.436 41.08 565.22 40.7875 564.884 40.43C564.548 40.0725 564.215 39.78 564.143 39.78C564.072 39.78 564.288 40.0725 564.624 40.43ZM580.464 40.495L579.834 41.21L580.549 40.5798C580.942 40.2329 581.264 39.9113 581.264 39.8648C581.264 39.6607 581.054 39.8268 580.464 40.495ZM579.151 42.055C578.828 42.4674 578.837 42.4765 579.249 42.1533C579.499 41.957 579.704 41.7521 579.704 41.6983C579.704 41.4843 579.491 41.6219 579.151 42.055ZM570.885 53.9716C570.897 54.2745 570.959 54.3361 571.042 54.1289C571.117 53.9412 571.107 53.7168 571.021 53.6305C570.935 53.5442 570.873 53.6976 570.885 53.9716ZM571.405 56.5716C571.417 56.8745 571.479 56.9361 571.562 56.7289C571.637 56.5412 571.627 56.3168 571.541 56.2305C571.455 56.1442 571.393 56.2976 571.405 56.5716ZM573.485 57.8716C573.497 58.1745 573.559 58.2361 573.642 58.0289C573.717 57.8412 573.707 57.6168 573.621 57.5305C573.535 57.4442 573.473 57.5976 573.485 57.8716ZM571.925 59.4316C571.937 59.7345 571.999 59.7961 572.082 59.5889C572.157 59.4012 572.147 59.1768 572.061 59.0905C571.975 59.0042 571.913 59.1576 571.925 59.4316ZM573.225 59.4316C573.237 59.7345 573.299 59.7961 573.382 59.5889C573.457 59.4012 573.447 59.1768 573.361 59.0905C573.275 59.0042 573.213 59.1576 573.225 59.4316ZM572.965 60.9916C572.977 61.2945 573.039 61.3561 573.122 61.1489C573.197 60.9612 573.187 60.7368 573.101 60.6505C573.015 60.5642 572.953 60.7176 572.965 60.9916ZM572.424 62.53C572.424 62.7445 572.541 62.92 572.684 62.92C572.827 62.92 572.944 62.7445 572.944 62.53C572.944 62.3155 572.827 62.14 572.684 62.14C572.541 62.14 572.424 62.3155 572.424 62.53Z" fill="#6C38FF"/>
<rect x="46" y="37" width="75" height="96" fill="#462483"/>
</svg>
